<svg width="16" height="16" viewBox="0 0 16 16" fill="none" xmlns="http://www.w3.org/2000/svg">
<path d="M2.66669 7.81714C2.66669 7.56401 2.85479 7.35481 3.09884 7.3217L3.16669 7.31714L13.1667 7.31714C13.4428 7.31714 13.6667 7.541 13.6667 7.81714C13.6667 8.07027 13.4786 8.27947 13.2345 8.31257L13.1667 8.31714H3.16669C2.89054 8.31714 2.66669 8.09328 2.66669 7.81714Z" fill="#3D3D3D"/>
<path d="M8.78069 4.15517C8.58501 3.96033 8.58433 3.64375 8.77917 3.44807C8.9563 3.27018 9.23404 3.25344 9.43009 3.39825L9.48628 3.44655L13.5196 7.46255C13.698 7.6402 13.7143 7.91895 13.5683 8.11499L13.5196 8.17114L9.4863 12.1878C9.29064 12.3827 8.97406 12.382 8.7792 12.1863C8.60206 12.0085 8.58649 11.7307 8.73214 11.5352L8.78066 11.4792L12.458 7.81666L8.78069 4.15517Z" fill="#3D3D3D"/>
</svg>
