<svg width="215" height="35" viewBox="0 0 215 35" fill="none" xmlns="http://www.w3.org/2000/svg">
<rect width="35" height="35" rx="4" fill="#46A358"/>
<path d="M18.77 12.12L14.324 13.578L14.9 15.72L17.15 15V24H19.58V12.12H18.77Z" fill="white"/>
<rect x="45.5" y="0.5" width="34" height="34" rx="3.5" stroke="#E5E5E5"/>
<path d="M60.592 22.154L63.832 18.824C64.984 17.618 65.578 16.97 66.01 15.98C66.244 15.494 66.352 14.972 66.352 14.414C66.352 12.47 64.858 10.94 62.752 10.94C60.538 10.94 59.116 12.704 59.116 14.486C59.116 14.882 59.152 15.242 59.242 15.566H60.214C60.124 15.188 60.088 14.828 60.088 14.522C60.088 13.136 61.132 11.804 62.77 11.804C64.39 11.804 65.362 13.064 65.362 14.468C65.362 15.71 64.66 16.7 63.166 18.266L58.864 22.73V23H66.91V22.154H60.592Z" fill="#3D3D3D"/>
<rect x="90.5" y="0.5" width="34" height="34" rx="3.5" stroke="#E5E5E5"/>
<path d="M110.55 19.31C110.55 16.898 108.624 15.692 106.752 15.692L110.208 11.426V11.12H103.314V11.984H108.696L105.276 16.214V16.502H106.284C108.354 16.502 109.578 17.582 109.578 19.31C109.578 20.192 109.29 20.912 108.696 21.47C108.12 22.028 107.382 22.298 106.464 22.298C105.132 22.298 104.052 21.65 103.242 20.354L102.558 20.84C103.404 22.19 104.682 23.18 106.464 23.18C108.624 23.18 110.55 21.722 110.55 19.31Z" fill="#3D3D3D"/>
<rect x="135.5" y="0.5" width="34" height="34" rx="3.5" stroke="#E5E5E5"/>
<path d="M157.162 19.85H155.344V15.566H154.408V19.85H149.62L153.382 11.12H152.41L148.432 20.372V20.678H154.408V23H155.344V20.678H157.162V19.85Z" fill="#3D3D3D"/>
<rect x="180.5" y="0.5" width="34" height="34" rx="3.5" stroke="#E5E5E5"/>
<path d="M195.375 12.75C195.375 12.75 200.625 15.858 200.625 18C200.625 20.1413 195.375 23.25 195.375 23.25" stroke="#3D3D3D" stroke-width="1.5" stroke-linecap="round" stroke-linejoin="round"/>
</svg>
